<svg id="ebBtkXdj5az1" xmlns="http://www.w3.org/2000/svg" xmlns:xlink="http://www.w3.org/1999/xlink" viewBox="0 0 300 300" shape-rendering="geometricPrecision" text-rendering="geometricPrecision" project-id="95e8bfae3cee4e26b36382644f5e0fdf" export-id="a1c7f1b6119d4aeb840756849c549382" cached="false"><g><path class="Black" d="M261.30469,147.83929c-2.11534,38.42866-7.33318,73.47278-19.46112,84.1905s-58.38336,6.48704-99.56196,4.79477c-8.37282-.34409-15.66235-.66847-22.07709-1.05538c13.36312-1.26643,27.04716-2.76264,39.63674-4.09325c43.1482-4.56038,72.40372-6.20846,82.85078-21.50595s6.3592-44.51653,4.3717-69.03057-5.82059-54.17655-19.39611-64.69758c-10.81521-8.38179-22.51931-10.85761-47.65302-12.37357c32.43621-3.074,62.98156-4.79419,71.39426.49379c11.87858,7.46654,12.01116,44.84858,9.89582,83.27724ZM72.55143,223.39561c-13.57552-10.52103-17.40861-40.18353-19.39611-64.69758s-6.07536-53.73308,4.3717-69.03057s39.70258-16.94557,82.85078-21.50595c12.5896-1.33061,26.27367-2.82682,39.63681-4.09325-6.41475-.38691-13.70431-.71129-22.07716-1.05538-41.1786-1.69227-87.43402-5.92295-99.56196,4.79477s-17.34578,45.76184-19.46112,84.1905-1.98276,75.8107,9.89582,83.27724c8.41271,5.28799,38.95809,3.56779,71.39433.49379-25.13376-1.51596-36.83788-3.99178-47.65309-12.37357Z" transform="translate(0 0.000001)" stroke-width="0.6"/></g><path class="Black" d="M134.705351,115.494435c-2.28087,1.252748-2.983584,5.540942-2.983584,5.540942l-.142075,59.529598c0,0-.037097,3.208535,2.841508,4.830564s8.382449-1.704905,8.382449-1.704905l40.349418-25.573574c0,0,5.948104-2.718367,6.060876-7.636914s-6.345027-8.275533-6.345027-8.275533l-42.480549-26.426027c0,0-3.402146-1.536899-5.683016-.284151Z" transform="translate(0 0.000003)" stroke-width="0.6"/></svg>
